<svg width="128" height="128" viewBox="0 0 128 128" fill="none" xmlns="http://www.w3.org/2000/svg">
  <rect width="128" height="128" rx="28" fill="#FFF1F2"/>
  <circle cx="64" cy="64" r="44" fill="#FFE4E6"/>
  <path d="M64 84C74.4934 84 83 75.4934 83 65C83 54.5066 74.4934 46 64 46C53.5066 46 45 54.5066 45 65C45 75.4934 53.5066 84 64 84Z" fill="#FB7185"/>
  <path d="M64 34C55.5 34 52 41.5 52 46.5C56 45 60 45 64 47C68 45 72 45 76 46.5C76 41.5 72.5 34 64 34Z" fill="#F472B6"/>
  <path d="M41 62C41.5 53.5 48.5 50.5 53 50.5C52 54 52 58 54 61.5C50.5 63.5 47.5 66.5 46 71C42.5 69 40.5 65.5 41 62Z" fill="#FDBA74"/>
  <path d="M87 62C86.5 53.5 79.5 50.5 75 50.5C76 54 76 58 74 61.5C77.5 63.5 80.5 66.5 82 71C85.5 69 87.5 65.5 87 62Z" fill="#86EFAC"/>
</svg>
